<svg xmlns="http://www.w3.org/2000/svg" viewBox="0 0 1600 900" preserveAspectRatio="xMidYMid slice"><defs>
  <linearGradient id="sky" x1="0" y1="0" x2="0" y2="1">
    <stop offset="0" stop-color="#090d2e"/><stop offset=".28" stop-color="#16236e"/>
    <stop offset=".46" stop-color="#2a45a8"/><stop offset=".58" stop-color="#5d7fd8"/><stop offset=".62" stop-color="#8fa8ea"/>
  </linearGradient>
  <linearGradient id="road" gradientUnits="userSpaceOnUse" x1="0" y1="900" x2="0" y2="540">
    <stop offset="0" stop-color="#1f2c62"/><stop offset=".55" stop-color="#3550a4"/><stop offset=".9" stop-color="#7d97e2"/><stop offset="1" stop-color="#b9cbf6"/>
  </linearGradient>
  <linearGradient id="walk" gradientUnits="userSpaceOnUse" x1="0" y1="900" x2="0" y2="540">
    <stop offset="0" stop-color="#2a3a7c"/><stop offset=".7" stop-color="#4d68bc"/><stop offset="1" stop-color="#93abe8"/>
  </linearGradient>
  <linearGradient id="mist" x1="0" y1="0" x2="0" y2="1">
    <stop offset="0" stop-color="#a9bdf5" stop-opacity="0"/><stop offset=".6" stop-color="#a9bdf5" stop-opacity=".35"/><stop offset="1" stop-color="#a9bdf5" stop-opacity="0"/>
  </linearGradient>
  <linearGradient id="cone" x1="0" y1="0" x2="0" y2="1">
    <stop offset="0" stop-color="#fff0c2" stop-opacity=".5"/><stop offset="1" stop-color="#ffd38a" stop-opacity="0"/>
  </linearGradient>
  <linearGradient id="glass" x1="0" y1="0" x2="0" y2="1">
    <stop offset="0" stop-color="#fff6dc"/><stop offset=".5" stop-color="#ffdca0"/><stop offset="1" stop-color="#f3b46a"/>
  </linearGradient>
  <linearGradient id="cloud" x1="0" y1="0" x2="0" y2="1">
    <stop offset="0" stop-color="#f4f7ff"/><stop offset=".45" stop-color="#c9d6ff"/><stop offset=".8" stop-color="#9aa8ec"/><stop offset="1" stop-color="#e7b3dc"/>
  </linearGradient>
  <radialGradient id="horizon" cx=".5" cy=".5" r=".5">
    <stop offset="0" stop-color="#e3ebff" stop-opacity=".9"/><stop offset=".4" stop-color="#9db4ff" stop-opacity=".35"/><stop offset="1" stop-color="#9db4ff" stop-opacity="0"/>
  </radialGradient>
  <radialGradient id="lamp" cx=".5" cy=".5" r=".5">
    <stop offset="0" stop-color="#fff1c4" stop-opacity=".95"/><stop offset=".2" stop-color="#e8a94e" stop-opacity=".5"/><stop offset=".55" stop-color="#9a6a3a" stop-opacity=".15"/><stop offset="1" stop-color="#000" stop-opacity="0"/>
  </radialGradient>
  <radialGradient id="warm" cx=".5" cy=".5" r=".5">
    <stop offset="0" stop-color="#ffd59a" stop-opacity=".75"/><stop offset=".5" stop-color="#ff9e64" stop-opacity=".2"/><stop offset="1" stop-color="#ff9e64" stop-opacity="0"/>
  </radialGradient>
  <radialGradient id="cool" cx=".5" cy=".5" r=".5">
    <stop offset="0" stop-color="#dfe9ff" stop-opacity=".7"/><stop offset="1" stop-color="#7aa2f7" stop-opacity="0"/>
  </radialGradient>
  <radialGradient id="red" cx=".5" cy=".5" r=".5">
    <stop offset="0" stop-color="#ff7a85" stop-opacity=".95"/><stop offset="1" stop-color="#f7768e" stop-opacity="0"/>
  </radialGradient>
  <radialGradient id="star" cx=".5" cy=".5" r=".5">
    <stop offset="0" stop-color="#fff" stop-opacity=".9"/><stop offset="1" stop-color="#c7d4ff" stop-opacity="0"/>
  </radialGradient>
  <radialGradient id="vignette" cx=".5" cy=".46" r=".75">
    <stop offset=".55" stop-color="#05071a" stop-opacity="0"/><stop offset="1" stop-color="#05071a" stop-opacity=".6"/>
  </radialGradient>
  <filter id="soft" x="-50%" y="-50%" width="200%" height="200%"><feGaussianBlur stdDeviation="1.2"/></filter>
  <filter id="cloudy" x="-20%" y="-20%" width="140%" height="140%"><feGaussianBlur stdDeviation="2.2"/></filter>
  <filter id="blur" x="-50%" y="-50%" width="200%" height="200%"><feGaussianBlur stdDeviation="14"/></filter>
  <filter id="streak" x="-200%" y="-50%" width="500%" height="200%"><feGaussianBlur stdDeviation="5 9"/></filter>
  <filter id="glow" x="-50%" y="-50%" width="200%" height="200%"><feGaussianBlur stdDeviation="3" result="b"/><feMerge><feMergeNode in="b"/><feMergeNode in="SourceGraphic"/></feMerge></filter>
  
</defs><linearGradient id="bg" x1="0" y1="0" x2="0" y2="1"><stop offset="0" stop-color="#11142e"/><stop offset=".6" stop-color="#191b2f"/><stop offset="1" stop-color="#1f2a52"/></linearGradient><rect width="1600" height="900" fill="url(#bg)"/><g opacity=".55"><circle cx="533.3" cy="227.1" r="0.5" fill="#fff" opacity="0.6"/><circle cx="433.5" cy="128.9" r="0.5" fill="#fff" opacity="0.4"/><circle cx="1407" cy="150.7" r="0.9" fill="#fff" opacity="0.6"/><circle cx="740.1" cy="158.2" r="0.7" fill="#fff" opacity="0.6"/><circle cx="63" cy="171.1" r="0.8" fill="#fff" opacity="0.9"/><circle cx="1272.8" cy="213.4" r="0.9" fill="#fff" opacity="0.7"/><circle cx="1264.3" cy="185" r="0.6" fill="#fff" opacity="0.6"/><circle cx="1123.8" cy="17" r="0.8" fill="#fff" opacity="0.4"/><circle cx="697.3" cy="44.8" r="0.5" fill="#fff" opacity="0.8"/><circle cx="1484" cy="60.4" r="0.5" fill="#fff" opacity="0.9"/><circle cx="688.5" cy="171.5" r="0.9" fill="#fff" opacity="0.9"/><circle cx="158.3" cy="0.1" r="0.6" fill="#fff" opacity="0.8"/><circle cx="775.3" cy="79.4" r="0.8" fill="#fff" opacity="0.6"/><circle cx="247.1" cy="138.3" r="0.8" fill="#fff" opacity="0.5"/><circle cx="1345.3" cy="274.8" r="0.5" fill="#fff" opacity="0.3"/><circle cx="104.2" cy="170.6" r="0.5" fill="#fff" opacity="0.8"/><circle cx="542.2" cy="175.5" r="0.5" fill="#fff" opacity="0.4"/><circle cx="645.1" cy="221.5" r="0.5" fill="#fff" opacity="0.8"/><circle cx="692.7" cy="156.7" r="1" fill="#fff" opacity="0.6"/><circle cx="271.8" cy="14.7" r="0.5" fill="#fff" opacity="0.6"/><circle cx="902.5" cy="110.7" r="0.9" fill="#fff" opacity="0.4"/><circle cx="1457.5" cy="33.6" r="0.5" fill="#fff" opacity="0.6"/><circle cx="1360.3" cy="10.3" r="0.6" fill="#fff" opacity="0.5"/><circle cx="958.6" cy="117.9" r="0.5" fill="#fff" opacity="0.6"/><circle cx="181.1" cy="266.2" r="0.8" fill="#fff" opacity="0.9"/><circle cx="1569.3" cy="140.4" r="0.6" fill="#fff" opacity="0.9"/><circle cx="858.7" cy="82.6" r="0.5" fill="#fff" opacity="0.5"/><circle cx="519.3" cy="68.5" r="1" fill="#fff" opacity="0.3"/><circle cx="845" cy="202" r="0.5" fill="#fff" opacity="0.3"/><circle cx="43.3" cy="187.6" r="0.5" fill="#fff" opacity="0.6"/><circle cx="661.1" cy="75.2" r="1" fill="#fff" opacity="0.4"/><circle cx="854.4" cy="230.3" r="0.6" fill="#fff" opacity="0.7"/><circle cx="767.9" cy="289.2" r="0.5" fill="#fff" opacity="0.5"/><circle cx="679.4" cy="65.9" r="0.5" fill="#fff" opacity="0.5"/><circle cx="918.9" cy="163.4" r="1" fill="#fff" opacity="0.4"/><circle cx="581.6" cy="161.6" r="0.6" fill="#fff" opacity="0.7"/><circle cx="1310.6" cy="186.7" r="0.7" fill="#fff" opacity="0.4"/><circle cx="543.7" cy="25.2" r="0.6" fill="#fff" opacity="0.6"/><circle cx="1571.7" cy="324" r="0.6" fill="#fff" opacity="0.9"/><circle cx="984.7" cy="109.5" r="0.8" fill="#fff" opacity="0.8"/><circle cx="642.7" cy="129.7" r="0.7" fill="#fff" opacity="0.3"/><circle cx="1506" cy="177.6" r="0.7" fill="#fff" opacity="0.6"/><circle cx="1091.9" cy="250.7" r="0.7" fill="#fff" opacity="0.3"/><circle cx="75.5" cy="237.8" r="0.5" fill="#fff" opacity="0.9"/><circle cx="1174.9" cy="318.9" r="0.5" fill="#fff" opacity="0.6"/><circle cx="706.3" cy="53.8" r="0.5" fill="#fff" opacity="0.3"/><circle cx="1148.1" cy="168.6" r="0.6" fill="#fff" opacity="0.9"/><circle cx="1402.1" cy="236" r="1.4" fill="#fff" opacity="0.3"/><circle cx="176.9" cy="221.2" r="0.6" fill="#fff" opacity="0.5"/><circle cx="1265" cy="302.1" r="0.6" fill="#fff" opacity="0.4"/><circle cx="1582.8" cy="152.5" r="0.6" fill="#fff" opacity="0.5"/><circle cx="868.7" cy="57.3" r="1.4" fill="#fff" opacity="0.8"/><circle cx="881" cy="201.3" r="0.5" fill="#fff" opacity="0.9"/><circle cx="651.4" cy="314.3" r="0.8" fill="#fff" opacity="0.9"/><circle cx="781.3" cy="20.9" r="1" fill="#fff" opacity="0.9"/><circle cx="1.9" cy="2.4" r="0.5" fill="#fff" opacity="0.6"/><circle cx="786.8" cy="86" r="0.6" fill="#fff" opacity="0.8"/><circle cx="567.9" cy="0.4" r="0.5" fill="#fff" opacity="0.6"/><circle cx="1135.7" cy="313.6" r="1.1" fill="#fff" opacity="0.5"/><circle cx="99.7" cy="155.5" r="1.3" fill="#fff" opacity="0.5"/><circle cx="218.1" cy="39.9" r="0.5" fill="#fff" opacity="0.3"/><circle cx="623.8" cy="47.2" r="0.5" fill="#fff" opacity="0.7"/><circle cx="742.4" cy="11.5" r="0.5" fill="#fff" opacity="0.4"/><circle cx="1058.1" cy="8.3" r="0.5" fill="#fff" opacity="0.8"/><circle cx="299.4" cy="324.1" r="1" fill="#fff" opacity="0.6"/><circle cx="75.6" cy="268.7" r="0.9" fill="#fff" opacity="0.6"/><circle cx="436.8" cy="13.7" r="0.6" fill="#fff" opacity="0.3"/><circle cx="238.3" cy="237.9" r="0.7" fill="#fff" opacity="0.7"/><circle cx="1016.5" cy="328.2" r="0.5" fill="#fff" opacity="0.3"/><circle cx="971.5" cy="46.6" r="1.1" fill="#fff" opacity="0.9"/><circle cx="867.6" cy="3.5" r="0.8" fill="#fff" opacity="0.7"/><circle cx="1512.6" cy="103" r="1.1" fill="#fff" opacity="0.5"/><circle cx="208.9" cy="152.7" r="0.5" fill="#fff" opacity="0.5"/><circle cx="665.1" cy="295.4" r="0.9" fill="#fff" opacity="0.8"/><circle cx="219.3" cy="22.2" r="0.5" fill="#fff" opacity="0.9"/><circle cx="922.1" cy="74.5" r="0.6" fill="#fff" opacity="0.9"/><circle cx="1244.6" cy="156.8" r="0.8" fill="#fff" opacity="0.8"/><circle cx="905.8" cy="259.8" r="0.6" fill="#fff" opacity="0.4"/><circle cx="614.7" cy="242.9" r="0.5" fill="#fff" opacity="0.4"/><circle cx="1571.2" cy="268.6" r="0.5" fill="#fff" opacity="0.3"/><circle cx="967.9" cy="121" r="0.6" fill="#fff" opacity="0.3"/><circle cx="301.1" cy="63.7" r="0.5" fill="#fff" opacity="0.6"/><circle cx="826.4" cy="366.3" r="0.9" fill="#fff" opacity="0.5"/><circle cx="81.2" cy="5.1" r="0.5" fill="#fff" opacity="0.8"/><circle cx="1441.2" cy="102.3" r="0.7" fill="#fff" opacity="0.3"/><circle cx="582.1" cy="328.1" r="1" fill="#fff" opacity="0.7"/><circle cx="553.3" cy="356.6" r="0.5" fill="#fff" opacity="0.9"/><circle cx="1084.2" cy="373.8" r="0.6" fill="#fff" opacity="0.6"/><circle cx="300.8" cy="180.1" r="0.5" fill="#fff" opacity="0.5"/><circle cx="747.1" cy="79.1" r="0.6" fill="#fff" opacity="0.6"/><circle cx="511.4" cy="204.8" r="0.5" fill="#fff" opacity="0.8"/><circle cx="348.2" cy="63.7" r="0.5" fill="#fff" opacity="0.8"/><circle cx="1205.1" cy="63.5" r="0.9" fill="#fff" opacity="0.6"/><circle cx="71.1" cy="50.9" r="0.5" fill="#fff" opacity="0.6"/><circle cx="1405.7" cy="257.3" r="0.6" fill="#fff" opacity="0.4"/><circle cx="1462" cy="57" r="0.5" fill="#fff" opacity="0.4"/><circle cx="1451.9" cy="135.5" r="0.6" fill="#fff" opacity="0.7"/><circle cx="1208.4" cy="144.6" r="0.5" fill="#fff" opacity="0.5"/><circle cx="1123.3" cy="297.2" r="0.5" fill="#fff" opacity="0.3"/><circle cx="1541.7" cy="148.9" r="0.6" fill="#fff" opacity="0.9"/><circle cx="722.9" cy="21.9" r="0.6" fill="#fff" opacity="0.8"/><circle cx="122.2" cy="71.6" r="1" fill="#fff" opacity="0.5"/><circle cx="773.7" cy="99.4" r="0.5" fill="#fff" opacity="0.9"/><circle cx="858.5" cy="84" r="0.7" fill="#fff" opacity="0.3"/><circle cx="600.9" cy="268.2" r="0.5" fill="#fff" opacity="0.9"/><circle cx="1185.3" cy="263.7" r="0.5" fill="#fff" opacity="0.6"/><circle cx="1487.7" cy="260.9" r="0.6" fill="#fff" opacity="0.3"/><circle cx="1572.3" cy="330.9" r="1" fill="#fff" opacity="0.8"/><circle cx="49.3" cy="122.6" r="0.5" fill="#fff" opacity="0.9"/><circle cx="1432.9" cy="208.1" r="0.5" fill="#fff" opacity="0.8"/><circle cx="1127.8" cy="18.2" r="0.6" fill="#fff" opacity="0.4"/><circle cx="196.8" cy="11.8" r="0.7" fill="#fff" opacity="0.5"/><circle cx="1518.1" cy="51.1" r="1" fill="#fff" opacity="0.3"/><circle cx="1471.1" cy="218.8" r="0.5" fill="#fff" opacity="0.7"/><circle cx="984.5" cy="149.4" r="1.2" fill="#fff" opacity="0.4"/><circle cx="325.4" cy="349.4" r="0.5" fill="#fff" opacity="0.8"/><circle cx="1482" cy="318.6" r="0.7" fill="#fff" opacity="0.7"/><circle cx="1170.6" cy="135" r="1.1" fill="#fff" opacity="0.7"/><circle cx="448" cy="212.8" r="0.5" fill="#fff" opacity="0.3"/><circle cx="893.7" cy="354.2" r="0.6" fill="#fff" opacity="0.4"/><circle cx="835" cy="195.8" r="0.6" fill="#fff" opacity="0.7"/><circle cx="37" cy="22.2" r="0.6" fill="#fff" opacity="0.3"/><circle cx="982.2" cy="20.2" r="1.1" fill="#fff" opacity="0.9"/><circle cx="1022.4" cy="127.8" r="0.9" fill="#fff" opacity="0.8"/><circle cx="845.3" cy="30.8" r="1.2" fill="#fff" opacity="0.8"/><circle cx="1524.2" cy="337.1" r="0.5" fill="#fff" opacity="0.6"/><circle cx="1518.4" cy="92.5" r="0.8" fill="#fff" opacity="0.7"/><circle cx="120.6" cy="174.1" r="0.7" fill="#fff" opacity="0.6"/><circle cx="924.1" cy="325" r="1.2" fill="#fff" opacity="0.8"/><circle cx="1119.1" cy="210.5" r="0.6" fill="#fff" opacity="0.7"/><circle cx="1331.2" cy="70.9" r="0.5" fill="#fff" opacity="0.8"/><circle cx="1368.8" cy="129.3" r="0.5" fill="#fff" opacity="0.9"/><circle cx="429.1" cy="352.5" r="0.5" fill="#fff" opacity="0.5"/><circle cx="98.7" cy="32.9" r="0.6" fill="#fff" opacity="0.9"/><circle cx="367.9" cy="212.7" r="1.3" fill="#fff" opacity="0.6"/><circle cx="662.8" cy="23.9" r="0.6" fill="#fff" opacity="0.5"/><circle cx="1129" cy="225.7" r="0.6" fill="#fff" opacity="0.4"/><circle cx="1162" cy="50.2" r="1.1" fill="#fff" opacity="0.8"/><circle cx="1566.4" cy="323" r="1" fill="#fff" opacity="0.7"/><circle cx="653.2" cy="44.4" r="0.5" fill="#fff" opacity="0.8"/></g><g opacity=".35"><g opacity="0.9"><circle cx="1211.8" cy="218.4" r="5" fill="url(#star)"/><path d="M1207.4,218.4H1216.2M1211.8,214V222.8" stroke="#eaf0ff" stroke-width=".8"/></g><g opacity="0.5"><circle cx="1233" cy="140.7" r="5" fill="url(#star)"/><path d="M1225.6,140.7H1240.3M1233,133.3V148" stroke="#eaf0ff" stroke-width=".8"/></g><g opacity="0.6"><circle cx="1487.1" cy="178.6" r="5" fill="url(#star)"/><path d="M1478.9,178.6H1495.2M1487.1,170.5V186.8" stroke="#eaf0ff" stroke-width=".8"/></g><g opacity="0.8"><circle cx="1394.1" cy="113.4" r="5" fill="url(#star)"/><path d="M1388.4,113.4H1399.8M1394.1,107.7V119.1" stroke="#eaf0ff" stroke-width=".8"/></g></g><g filter="url(#blur)" opacity=".2"><ellipse cx="520" cy="840" rx="300" ry="80" fill="#bb9af7"/><ellipse cx="880" cy="820" rx="240" ry="70" fill="#f4a6c8"/><ellipse cx="1220" cy="850" rx="280" ry="70" fill="#7aa2f7"/></g><g filter="url(#blur)" opacity=".12"><circle cx="1018" cy="772.1" r="40" fill="#c9d6ff"/><circle cx="1125.4" cy="738" r="41.8" fill="#c9d6ff"/><circle cx="1019" cy="756.1" r="49.5" fill="#c9d6ff"/><circle cx="1075" cy="736.5" r="53.8" fill="#c9d6ff"/><circle cx="1145.4" cy="759" r="34.7" fill="#c9d6ff"/><circle cx="1193.2" cy="759.5" r="29" fill="#c9d6ff"/><circle cx="1027.1" cy="746.3" r="51.6" fill="#c9d6ff"/><circle cx="1095.2" cy="748.9" r="26.7" fill="#c9d6ff"/><circle cx="1271.2" cy="739.5" r="53.4" fill="#c9d6ff"/><circle cx="1230.5" cy="759.4" r="28.9" fill="#c9d6ff"/></g><g opacity=".8"><rect x="1490" y="-10" width="9" height="200" fill="#0b0f26"/><rect x="1462" y="40" width="65" height="5" fill="#0b0f26"/><path d="M1100,-10 Q1297,56 1494,42" stroke="#060a22" stroke-width="1.4" fill="none" opacity=".92"/><path d="M1180,-10 Q1337,41 1494,42" stroke="#060a22" stroke-width="1.2" fill="none" opacity=".92"/><path d="M1494,42 Q1552,66 1610,70" stroke="#060a22" stroke-width="1.4" fill="none" opacity=".92"/><path d="M1494,70 Q1552,102 1610,110" stroke="#060a22" stroke-width="1.4" fill="none" opacity=".92"/><path d="M1260,-10 Q1377,60 1494,70" stroke="#060a22" stroke-width="1.1" fill="none" opacity=".92"/></g><g opacity="0.45"><rect x="-10" y="734.2" width="73.9" height="165.8" fill="#27336a"/><rect x="63.9" y="792" width="108.9" height="108" fill="#27336a"/><rect x="93.9" y="832" width="5" height="4" fill="#9ab8ff" opacity=".6"/><rect x="81.9" y="843" width="5" height="4" fill="#ffc777" opacity=".6"/><rect x="105.9" y="854" width="5" height="4" fill="#9ab8ff" opacity=".6"/><rect x="105.9" y="876" width="5" height="4" fill="#ffc777" opacity=".6"/><rect x="172.9" y="776.7" width="101.1" height="123.3" fill="#27336a"/><rect x="250.9" y="827.7" width="5" height="4" fill="#ffc777" opacity=".6"/><rect x="226.9" y="849.7" width="5" height="4" fill="#ffc777" opacity=".6"/><rect x="250.9" y="860.7" width="5" height="4" fill="#9ab8ff" opacity=".6"/><rect x="202.9" y="882.7" width="5" height="4" fill="#9ab8ff" opacity=".6"/><rect x="238.9" y="882.7" width="5" height="4" fill="#ffc777" opacity=".6"/><rect x="274" y="750.9" width="91.8" height="149.1" fill="#27336a"/><rect x="316" y="757.9" width="5" height="4" fill="#ffc777" opacity=".6"/><rect x="340" y="768.9" width="5" height="4" fill="#ffc777" opacity=".6"/><rect x="280" y="779.9" width="5" height="4" fill="#ffc777" opacity=".6"/><rect x="316" y="779.9" width="5" height="4" fill="#9ab8ff" opacity=".6"/><rect x="352" y="790.9" width="5" height="4" fill="#ffc777" opacity=".6"/><rect x="292" y="834.9" width="5" height="4" fill="#ffc777" opacity=".6"/><rect x="365.8" y="758" width="66.3" height="142" fill="#27336a"/><rect x="371.8" y="798" width="5" height="4" fill="#ffc777" opacity=".6"/><rect x="432.1" y="765.3" width="51.8" height="134.7" fill="#27336a"/><rect x="438.1" y="794.3" width="5" height="4" fill="#9ab8ff" opacity=".6"/><rect x="450.1" y="805.3" width="5" height="4" fill="#9ab8ff" opacity=".6"/><rect x="483.9" y="803.4" width="55" height="96.6" fill="#27336a"/><rect x="513.9" y="843.4" width="5" height="4" fill="#ffc777" opacity=".6"/><rect x="548.9" y="818.1" width="82.6" height="81.9" fill="#27336a"/><rect x="554.9" y="891.1" width="5" height="4" fill="#ffc777" opacity=".6"/><rect x="641.5" y="785.4" width="81.8" height="114.6" fill="#27336a"/><rect x="647.5" y="792.4" width="5" height="4" fill="#ffc777" opacity=".6"/><rect x="733.3" y="754.6" width="76.9" height="145.4" fill="#27336a"/><rect x="775.3" y="849.6" width="5" height="4" fill="#ffc777" opacity=".6"/><rect x="810.2" y="716.9" width="97.8" height="183.1" fill="#27336a"/><rect x="852.2" y="723.9" width="5" height="4" fill="#ffc777" opacity=".6"/><rect x="864.2" y="734.9" width="5" height="4" fill="#ffc777" opacity=".6"/><rect x="876.2" y="745.9" width="5" height="4" fill="#ffc777" opacity=".6"/><rect x="828.2" y="767.9" width="5" height="4" fill="#ffc777" opacity=".6"/><rect x="864.2" y="822.9" width="5" height="4" fill="#ffc777" opacity=".6"/><rect x="840.2" y="855.9" width="5" height="4" fill="#ffc777" opacity=".6"/><rect x="908" y="772" width="106.6" height="128" fill="#27336a"/><rect x="962" y="790" width="5" height="4" fill="#ffc777" opacity=".6"/><rect x="986" y="790" width="5" height="4" fill="#9ab8ff" opacity=".6"/><rect x="938" y="801" width="5" height="4" fill="#ffc777" opacity=".6"/><rect x="986" y="801" width="5" height="4" fill="#ffc777" opacity=".6"/><rect x="938" y="856" width="5" height="4" fill="#ffc777" opacity=".6"/><rect x="950" y="856" width="5" height="4" fill="#ffc777" opacity=".6"/><rect x="1014.7" y="829.7" width="81.7" height="70.3" fill="#27336a"/><rect x="1068.7" y="858.7" width="5" height="4" fill="#ffc777" opacity=".6"/><rect x="1020.7" y="891.7" width="5" height="4" fill="#ffc777" opacity=".6"/><rect x="1106.4" y="748.7" width="71" height="151.3" fill="#27336a"/><rect x="1148.4" y="777.7" width="5" height="4" fill="#ffc777" opacity=".6"/><rect x="1160.4" y="777.7" width="5" height="4" fill="#ffc777" opacity=".6"/><rect x="1136.4" y="788.7" width="5" height="4" fill="#9ab8ff" opacity=".6"/><rect x="1148.4" y="788.7" width="5" height="4" fill="#9ab8ff" opacity=".6"/><rect x="1187.4" y="826.4" width="70.7" height="73.6" fill="#27336a"/><rect x="1268.1" y="752.5" width="76.2" height="147.5" fill="#27336a"/><rect x="1274.1" y="781.5" width="5" height="4" fill="#ffc777" opacity=".6"/><rect x="1310.1" y="781.5" width="5" height="4" fill="#ffc777" opacity=".6"/><rect x="1298.1" y="792.5" width="5" height="4" fill="#ffc777" opacity=".6"/><rect x="1274.1" y="880.5" width="5" height="4" fill="#ffc777" opacity=".6"/><rect x="1344.3" y="829.9" width="90.1" height="70.1" fill="#27336a"/><rect x="1410.3" y="880.9" width="5" height="4" fill="#ffc777" opacity=".6"/><rect x="1434.4" y="765.7" width="99.5" height="134.3" fill="#27336a"/><rect x="1524.4" y="772.7" width="5" height="4" fill="#9ab8ff" opacity=".6"/><rect x="1524.4" y="816.7" width="5" height="4" fill="#ffc777" opacity=".6"/><rect x="1476.4" y="827.7" width="5" height="4" fill="#9ab8ff" opacity=".6"/><rect x="1440.4" y="871.7" width="5" height="4" fill="#ffc777" opacity=".6"/><rect x="1464.4" y="871.7" width="5" height="4" fill="#ffc777" opacity=".6"/><rect x="1452.4" y="882.7" width="5" height="4" fill="#9ab8ff" opacity=".6"/><rect x="1512.4" y="893.7" width="5" height="4" fill="#ffc777" opacity=".6"/><rect x="1533.9" y="815.8" width="72.1" height="84.2" fill="#27336a"/><rect x="1551.9" y="833.8" width="5" height="4" fill="#9ab8ff" opacity=".6"/></g><rect x="0" y="750" width="1600" height="150" fill="url(#mist)" opacity=".35"/><g opacity="0.8"><rect x="-10" y="847.8" width="42.6" height="52.2" fill="#1b2350"/><rect x="20" y="887.8" width="5" height="4" fill="#ffc777" opacity=".6"/><rect x="32.6" y="830.6" width="71.5" height="69.4" fill="#1b2350"/><rect x="38.6" y="859.6" width="5" height="4" fill="#ffc777" opacity=".6"/><rect x="50.6" y="881.6" width="5" height="4" fill="#9ab8ff" opacity=".6"/><rect x="114.1" y="846.9" width="80.9" height="53.1" fill="#1b2350"/><rect x="156.1" y="853.9" width="5" height="4" fill="#ffc777" opacity=".6"/><rect x="120.1" y="864.9" width="5" height="4" fill="#ffc777" opacity=".6"/><rect x="195" y="816.2" width="56.5" height="83.8" fill="#1b2350"/><rect x="237" y="889.2" width="5" height="4" fill="#9ab8ff" opacity=".6"/><rect x="261.5" y="820.3" width="51.3" height="79.7" fill="#1b2350"/><rect x="267.5" y="827.3" width="5" height="4" fill="#ffc777" opacity=".6"/><rect x="279.5" y="860.3" width="5" height="4" fill="#9ab8ff" opacity=".6"/><rect x="303.5" y="882.3" width="5" height="4" fill="#9ab8ff" opacity=".6"/><rect x="279.5" y="893.3" width="5" height="4" fill="#9ab8ff" opacity=".6"/><rect x="322.8" y="857.7" width="65.8" height="42.3" fill="#1b2350"/><rect x="376.8" y="875.7" width="5" height="4" fill="#ffc777" opacity=".6"/><rect x="398.6" y="829" width="95.1" height="71" fill="#1b2350"/><rect x="404.6" y="836" width="5" height="4" fill="#9ab8ff" opacity=".6"/><rect x="464.6" y="836" width="5" height="4" fill="#9ab8ff" opacity=".6"/><rect x="404.6" y="858" width="5" height="4" fill="#9ab8ff" opacity=".6"/><rect x="416.6" y="880" width="5" height="4" fill="#ffc777" opacity=".6"/><rect x="493.7" y="852" width="51" height="48" fill="#1b2350"/><rect x="511.7" y="881" width="5" height="4" fill="#ffc777" opacity=".6"/><rect x="535.7" y="892" width="5" height="4" fill="#9ab8ff" opacity=".6"/><rect x="544.7" y="857" width="49.2" height="43" fill="#1b2350"/><rect x="550.7" y="864" width="5" height="4" fill="#ffc777" opacity=".6"/><rect x="550.7" y="886" width="5" height="4" fill="#9ab8ff" opacity=".6"/><rect x="593.9" y="841.1" width="68" height="58.9" fill="#1b2350"/><rect x="611.9" y="859.1" width="5" height="4" fill="#9ab8ff" opacity=".6"/><rect x="623.9" y="881.1" width="5" height="4" fill="#ffc777" opacity=".6"/><rect x="635.9" y="892.1" width="5" height="4" fill="#ffc777" opacity=".6"/><rect x="661.9" y="850.5" width="97.8" height="49.5" fill="#1b2350"/><rect x="667.9" y="857.5" width="5" height="4" fill="#ffc777" opacity=".6"/><rect x="667.9" y="879.5" width="5" height="4" fill="#ffc777" opacity=".6"/><rect x="679.9" y="890.5" width="5" height="4" fill="#9ab8ff" opacity=".6"/><rect x="727.9" y="890.5" width="5" height="4" fill="#ffc777" opacity=".6"/><rect x="759.7" y="823.5" width="77.5" height="76.5" fill="#1b2350"/><rect x="789.7" y="863.5" width="5" height="4" fill="#ffc777" opacity=".6"/><rect x="813.7" y="863.5" width="5" height="4" fill="#ffc777" opacity=".6"/><rect x="801.7" y="874.5" width="5" height="4" fill="#ffc777" opacity=".6"/><rect x="765.7" y="885.5" width="5" height="4" fill="#ffc777" opacity=".6"/><rect x="813.7" y="885.5" width="5" height="4" fill="#ffc777" opacity=".6"/><rect x="837.2" y="840.2" width="67.3" height="59.8" fill="#1b2350"/><rect x="867.2" y="869.2" width="5" height="4" fill="#ffc777" opacity=".6"/><rect x="904.5" y="845.7" width="70.2" height="54.3" fill="#1b2350"/><rect x="934.5" y="885.7" width="5" height="4" fill="#ffc777" opacity=".6"/><rect x="984.7" y="830.2" width="88.6" height="69.8" fill="#1b2350"/><rect x="1050.7" y="837.2" width="5" height="4" fill="#ffc777" opacity=".6"/><rect x="1026.7" y="859.2" width="5" height="4" fill="#ffc777" opacity=".6"/><rect x="990.7" y="870.2" width="5" height="4" fill="#ffc777" opacity=".6"/><rect x="1026.7" y="892.2" width="5" height="4" fill="#ffc777" opacity=".6"/><rect x="1073.3" y="819" width="66.6" height="81" fill="#1b2350"/><rect x="1103.3" y="837" width="5" height="4" fill="#9ab8ff" opacity=".6"/><rect x="1091.3" y="848" width="5" height="4" fill="#ffc777" opacity=".6"/><rect x="1091.3" y="859" width="5" height="4" fill="#ffc777" opacity=".6"/><rect x="1115.3" y="870" width="5" height="4" fill="#ffc777" opacity=".6"/><rect x="1091.3" y="881" width="5" height="4" fill="#ffc777" opacity=".6"/><rect x="1149.8" y="849.2" width="81.9" height="50.8" fill="#1b2350"/><rect x="1179.8" y="867.2" width="5" height="4" fill="#ffc777" opacity=".6"/><rect x="1155.8" y="878.2" width="5" height="4" fill="#ffc777" opacity=".6"/><rect x="1215.8" y="889.2" width="5" height="4" fill="#9ab8ff" opacity=".6"/><rect x="1231.7" y="827" width="73.1" height="73" fill="#1b2350"/><rect x="1273.7" y="834" width="5" height="4" fill="#9ab8ff" opacity=".6"/><rect x="1237.7" y="878" width="5" height="4" fill="#9ab8ff" opacity=".6"/><rect x="1285.7" y="889" width="5" height="4" fill="#ffc777" opacity=".6"/><rect x="1304.8" y="824.1" width="73.8" height="75.9" fill="#1b2350"/><rect x="1346.8" y="842.1" width="5" height="4" fill="#9ab8ff" opacity=".6"/><rect x="1358.8" y="842.1" width="5" height="4" fill="#ffc777" opacity=".6"/><rect x="1322.8" y="853.1" width="5" height="4" fill="#ffc777" opacity=".6"/><rect x="1378.6" y="848" width="90.5" height="52" fill="#1b2350"/><rect x="1396.6" y="855" width="5" height="4" fill="#ffc777" opacity=".6"/><rect x="1408.6" y="877" width="5" height="4" fill="#ffc777" opacity=".6"/><rect x="1432.6" y="877" width="5" height="4" fill="#ffc777" opacity=".6"/><rect x="1469.1" y="860" width="75.7" height="40" fill="#1b2350"/><rect x="1511.1" y="878" width="5" height="4" fill="#ffc777" opacity=".6"/><rect x="1544.8" y="832.3" width="42.3" height="67.7" fill="#1b2350"/><rect x="1587.2" y="858.8" width="70.6" height="41.2" fill="#1b2350"/></g><rect x="1360" y="725" width="30" height="175" fill="#161d44"/><rect x="1373" y="700" width="3" height="25" fill="#161d44"/><circle cx="1374.5" cy="699" r="7" fill="url(#red)"/><circle cx="1374.5" cy="699" r="2" fill="#ff7a85"/><rect x="1366" y="735" width="18" height="2" fill="#7aa2f7" opacity="0.3"/><rect x="1366" y="747" width="18" height="2" fill="#7aa2f7" opacity="0.2"/><rect x="1366" y="759" width="18" height="2" fill="#7aa2f7" opacity="0.2"/><rect x="1366" y="771" width="18" height="2" fill="#7aa2f7" opacity="0.3"/><rect x="1366" y="783" width="18" height="2" fill="#7aa2f7" opacity="0.3"/><rect x="1366" y="795" width="18" height="2" fill="#7aa2f7" opacity="0.2"/><rect x="1366" y="807" width="18" height="2" fill="#7aa2f7" opacity="0.3"/><rect x="1366" y="819" width="18" height="2" fill="#7aa2f7" opacity="0.3"/><rect x="1366" y="831" width="18" height="2" fill="#7aa2f7" opacity="0.3"/><rect x="1366" y="843" width="18" height="2" fill="#7aa2f7" opacity="0.3"/><rect x="1366" y="855" width="18" height="2" fill="#7aa2f7" opacity="0.3"/><rect x="1366" y="867" width="18" height="2" fill="#7aa2f7" opacity="0.3"/><rect x="1366" y="879" width="18" height="2" fill="#7aa2f7" opacity="0.3"/><g opacity="0.95"><rect x="-10" y="878.7" width="119.4" height="21.3" fill="#121836"/><rect x="119.4" y="882.8" width="110.8" height="17.2" fill="#121836"/><rect x="125.4" y="889.8" width="5" height="4" fill="#ffc777" opacity=".6"/><rect x="149.4" y="889.8" width="5" height="4" fill="#9ab8ff" opacity=".6"/><rect x="173.4" y="889.8" width="5" height="4" fill="#ffc777" opacity=".6"/><rect x="197.4" y="889.8" width="5" height="4" fill="#ffc777" opacity=".6"/><rect x="230.2" y="857.9" width="52" height="42.1" fill="#121836"/><rect x="236.2" y="864.9" width="5" height="4" fill="#9ab8ff" opacity=".6"/><rect x="248.2" y="864.9" width="5" height="4" fill="#ffc777" opacity=".6"/><rect x="282.2" y="854.1" width="57.6" height="45.9" fill="#121836"/><rect x="324.2" y="861.1" width="5" height="4" fill="#9ab8ff" opacity=".6"/><rect x="288.2" y="883.1" width="5" height="4" fill="#ffc777" opacity=".6"/><rect x="339.8" y="850.6" width="119.6" height="49.4" fill="#121836"/><rect x="357.8" y="868.6" width="5" height="4" fill="#9ab8ff" opacity=".6"/><rect x="369.8" y="868.6" width="5" height="4" fill="#ffc777" opacity=".6"/><rect x="393.8" y="868.6" width="5" height="4" fill="#9ab8ff" opacity=".6"/><rect x="441.8" y="868.6" width="5" height="4" fill="#ffc777" opacity=".6"/><rect x="357.8" y="890.6" width="5" height="4" fill="#9ab8ff" opacity=".6"/><rect x="429.8" y="890.6" width="5" height="4" fill="#9ab8ff" opacity=".6"/><rect x="459.4" y="876.3" width="57" height="23.7" fill="#121836"/><rect x="526.4" y="883.9" width="78.6" height="16.1" fill="#121836"/><rect x="605" y="871" width="55" height="29" fill="#121836"/><rect x="647" y="889" width="5" height="4" fill="#9ab8ff" opacity=".6"/><rect x="660" y="867.7" width="48.5" height="32.3" fill="#121836"/><rect x="708.5" y="847" width="70.7" height="53" fill="#121836"/><rect x="738.5" y="854" width="5" height="4" fill="#9ab8ff" opacity=".6"/><rect x="714.5" y="887" width="5" height="4" fill="#9ab8ff" opacity=".6"/><rect x="779.3" y="852.7" width="40" height="47.3" fill="#121836"/><rect x="785.3" y="859.7" width="5" height="4" fill="#ffc777" opacity=".6"/><rect x="819.3" y="862.8" width="48.2" height="37.2" fill="#121836"/><rect x="837.3" y="891.8" width="5" height="4" fill="#ffc777" opacity=".6"/><rect x="867.5" y="859.7" width="103.5" height="40.3" fill="#121836"/><rect x="909.5" y="866.7" width="5" height="4" fill="#9ab8ff" opacity=".6"/><rect x="921.5" y="866.7" width="5" height="4" fill="#9ab8ff" opacity=".6"/><rect x="921.5" y="877.7" width="5" height="4" fill="#9ab8ff" opacity=".6"/><rect x="971" y="870.7" width="91.4" height="29.3" fill="#121836"/><rect x="977" y="888.7" width="5" height="4" fill="#ffc777" opacity=".6"/><rect x="1037" y="888.7" width="5" height="4" fill="#ffc777" opacity=".6"/><rect x="1062.3" y="867" width="104" height="33" fill="#121836"/><rect x="1116.3" y="874" width="5" height="4" fill="#ffc777" opacity=".6"/><rect x="1166.3" y="870.6" width="109.5" height="29.4" fill="#121836"/><rect x="1275.8" y="861.5" width="104.5" height="38.5" fill="#121836"/><rect x="1365.8" y="868.5" width="5" height="4" fill="#ffc777" opacity=".6"/><rect x="1281.8" y="879.5" width="5" height="4" fill="#9ab8ff" opacity=".6"/><rect x="1293.8" y="879.5" width="5" height="4" fill="#9ab8ff" opacity=".6"/><rect x="1305.8" y="879.5" width="5" height="4" fill="#9ab8ff" opacity=".6"/><rect x="1365.8" y="890.5" width="5" height="4" fill="#ffc777" opacity=".6"/><rect x="1380.3" y="883.4" width="118.7" height="16.6" fill="#121836"/><rect x="1470.3" y="890.4" width="5" height="4" fill="#ffc777" opacity=".6"/><rect x="1509.1" y="851" width="100.7" height="49" fill="#121836"/><rect x="1515.1" y="880" width="5" height="4" fill="#ffc777" opacity=".6"/></g><rect x="0" y="897" width="1600" height="3" fill="#7aa2f7" opacity=".25"/></svg>